<?xml version="1.0" encoding="utf-8"?>
<!-- Generator: Adobe Illustrator 21.1.0, SVG Export Plug-In . SVG Version: 6.00 Build 0)  -->
<svg version="1.1" id="Layer_1" xmlns="http://www.w3.org/2000/svg" xmlns:xlink="http://www.w3.org/1999/xlink" x="0px" y="0px"
	 viewBox="0 0 550 551" style="enable-background:new 0 0 550 551;" xml:space="preserve">
<g>
	<polygon points="268.8,402.6 268.8,290.2 156.3,402.6 	"/>
	<rect x="280.8" y="281" width="121.6" height="121.6"/>
	<polygon points="402.4,269 402.4,156.5 290,269 	"/>
	<polygon points="280.8,261.2 394,148.1 280.8,148.1 	"/>
	<polygon points="268.8,269 268.8,157.3 157,269 	"/>
	<polygon points="147.9,148.1 147.9,261.2 261,148.1 	"/>
	<polygon points="147.9,281 147.9,394.2 261,281 	"/>
	<polygon points="75.2,333.8 135.9,273.2 135.9,156.5 16.9,275.5 	"/>
	<polygon points="414.4,156.8 414.4,269 526.6,269 	"/>
	<polygon points="275,17.4 156.3,136.1 393.7,136.1 	"/>
	<polygon points="414.4,281 414.4,394.2 527.6,281 	"/>
	<polygon points="268.8,527.4 268.8,414.6 156,414.6 	"/>
	<polygon points="135.9,394.5 135.9,290.2 83.7,342.3 	"/>
	<polygon points="280.8,527.8 394,414.6 280.8,414.6 	"/>
</g>
</svg>
